<mxfile host="app.diagrams.net" agent="Mozilla/5.0 (Windows NT 10.0; Win64; x64) AppleWebKit/537.36 (KHTML, like Gecko) Chrome/137.0.0.0 Safari/537.36 Edg/137.0.0.0" version="27.2.0">
  <diagram name="Page-1" id="iXq2lMvNKYPHCb-s1hWl">
    <mxGraphModel dx="1493" dy="1963" grid="1" gridSize="10" guides="1" tooltips="1" connect="1" arrows="1" fold="1" page="1" pageScale="1" pageWidth="850" pageHeight="1100" background="light-dark(#E5CCFF,#121212)" math="0" shadow="0">
      <root>
        <mxCell id="0" />
        <mxCell id="1" parent="0" />
        <mxCell id="tbZ0Uo-vrXjydTOs-JI0-1" value="WebAPI : add/edit user , calculate payment" style="rounded=0;whiteSpace=wrap;html=1;" vertex="1" parent="1">
          <mxGeometry x="160" y="90" width="120" height="60" as="geometry" />
        </mxCell>
        <mxCell id="tbZ0Uo-vrXjydTOs-JI0-3" value="" style="ellipse;shape=cloud;whiteSpace=wrap;html=1;" vertex="1" parent="1">
          <mxGeometry x="425" y="-10" width="340" height="530" as="geometry" />
        </mxCell>
        <mxCell id="tbZ0Uo-vrXjydTOs-JI0-4" value="" style="shape=flexArrow;endArrow=classic;startArrow=classic;html=1;rounded=0;exitX=0.5;exitY=0;exitDx=0;exitDy=0;entryX=0.5;entryY=1;entryDx=0;entryDy=0;" edge="1" parent="1" target="tbZ0Uo-vrXjydTOs-JI0-1">
          <mxGeometry width="100" height="100" relative="1" as="geometry">
            <mxPoint x="220" y="290" as="sourcePoint" />
            <mxPoint x="220" y="150" as="targetPoint" />
          </mxGeometry>
        </mxCell>
        <mxCell id="tbZ0Uo-vrXjydTOs-JI0-5" value="Server&lt;div&gt;adminDB&lt;/div&gt;&lt;div&gt;BillingDB&lt;/div&gt;&lt;div&gt;logDB transacation leve.&amp;nbsp;&lt;/div&gt;&lt;div&gt;logGroups.&lt;/div&gt;&lt;div&gt;&lt;br&gt;&lt;/div&gt;" style="shape=cylinder3;whiteSpace=wrap;html=1;boundedLbl=1;backgroundOutline=1;size=15;" vertex="1" parent="1">
          <mxGeometry x="190" y="290" width="60" height="120" as="geometry" />
        </mxCell>
        <mxCell id="tbZ0Uo-vrXjydTOs-JI0-6" value="" style="shape=flexArrow;endArrow=classic;html=1;rounded=0;" edge="1" parent="1">
          <mxGeometry width="50" height="50" relative="1" as="geometry">
            <mxPoint x="340" y="240" as="sourcePoint" />
            <mxPoint x="430" y="240" as="targetPoint" />
          </mxGeometry>
        </mxCell>
        <mxCell id="tbZ0Uo-vrXjydTOs-JI0-7" value="Administration" style="text;html=1;align=center;verticalAlign=middle;whiteSpace=wrap;rounded=0;strokeColor=default;" vertex="1" parent="1">
          <mxGeometry x="30" y="450" width="90" height="30" as="geometry" />
        </mxCell>
        <mxCell id="tbZ0Uo-vrXjydTOs-JI0-8" value="Billing Calculation" style="text;html=1;align=center;verticalAlign=middle;whiteSpace=wrap;rounded=0;strokeColor=default;" vertex="1" parent="1">
          <mxGeometry x="30" y="510" width="90" height="30" as="geometry" />
        </mxCell>
        <mxCell id="tbZ0Uo-vrXjydTOs-JI0-9" value="" style="endArrow=none;dashed=1;html=1;rounded=0;" edge="1" parent="1">
          <mxGeometry width="50" height="50" relative="1" as="geometry">
            <mxPoint x="370" y="700" as="sourcePoint" />
            <mxPoint x="370" y="20" as="targetPoint" />
          </mxGeometry>
        </mxCell>
        <mxCell id="tbZ0Uo-vrXjydTOs-JI0-14" style="edgeStyle=orthogonalEdgeStyle;rounded=0;orthogonalLoop=1;jettySize=auto;html=1;" edge="1" parent="1" source="tbZ0Uo-vrXjydTOs-JI0-10" target="tbZ0Uo-vrXjydTOs-JI0-11">
          <mxGeometry relative="1" as="geometry" />
        </mxCell>
        <mxCell id="tbZ0Uo-vrXjydTOs-JI0-10" value="Appfunction" style="ellipse;whiteSpace=wrap;html=1;" vertex="1" parent="1">
          <mxGeometry x="560" y="240" width="120" height="80" as="geometry" />
        </mxCell>
        <mxCell id="tbZ0Uo-vrXjydTOs-JI0-11" value="Azure SQL" style="shape=cylinder3;whiteSpace=wrap;html=1;boundedLbl=1;backgroundOutline=1;size=15;" vertex="1" parent="1">
          <mxGeometry x="590" y="390" width="60" height="80" as="geometry" />
        </mxCell>
        <mxCell id="tbZ0Uo-vrXjydTOs-JI0-12" value="Administration" style="text;html=1;align=center;verticalAlign=middle;whiteSpace=wrap;rounded=0;strokeColor=default;" vertex="1" parent="1">
          <mxGeometry x="510" y="530" width="90" height="30" as="geometry" />
        </mxCell>
        <mxCell id="tbZ0Uo-vrXjydTOs-JI0-13" value="Billing Calculation" style="text;html=1;align=center;verticalAlign=middle;whiteSpace=wrap;rounded=0;strokeColor=default;" vertex="1" parent="1">
          <mxGeometry x="510" y="580" width="90" height="30" as="geometry" />
        </mxCell>
        <mxCell id="tbZ0Uo-vrXjydTOs-JI0-15" value="Action" style="text;html=1;align=center;verticalAlign=middle;whiteSpace=wrap;rounded=0;" vertex="1" parent="1">
          <mxGeometry x="620" y="330" width="60" height="30" as="geometry" />
        </mxCell>
        <mxCell id="tbZ0Uo-vrXjydTOs-JI0-16" value="Trigger" style="text;html=1;align=center;verticalAlign=middle;whiteSpace=wrap;rounded=0;" vertex="1" parent="1">
          <mxGeometry x="580" y="200" width="60" height="30" as="geometry" />
        </mxCell>
        <mxCell id="tbZ0Uo-vrXjydTOs-JI0-18" style="edgeStyle=orthogonalEdgeStyle;rounded=0;orthogonalLoop=1;jettySize=auto;html=1;" edge="1" parent="1" source="tbZ0Uo-vrXjydTOs-JI0-17" target="tbZ0Uo-vrXjydTOs-JI0-10">
          <mxGeometry relative="1" as="geometry" />
        </mxCell>
        <mxCell id="tbZ0Uo-vrXjydTOs-JI0-17" value="HTTP" style="ellipse;whiteSpace=wrap;html=1;" vertex="1" parent="1">
          <mxGeometry x="550" y="100" width="120" height="80" as="geometry" />
        </mxCell>
        <mxCell id="tbZ0Uo-vrXjydTOs-JI0-21" value="PaymentsDB" style="text;html=1;align=center;verticalAlign=middle;whiteSpace=wrap;rounded=0;strokeColor=default;" vertex="1" parent="1">
          <mxGeometry x="20" y="660" width="90" height="40" as="geometry" />
        </mxCell>
        <mxCell id="tbZ0Uo-vrXjydTOs-JI0-22" value="" style="shape=flexArrow;endArrow=classic;startArrow=classic;html=1;rounded=0;exitX=0.5;exitY=0;exitDx=0;exitDy=0;entryX=0.413;entryY=0.9;entryDx=0;entryDy=0;entryPerimeter=0;" edge="1" parent="1" source="tbZ0Uo-vrXjydTOs-JI0-21" target="tbZ0Uo-vrXjydTOs-JI0-8">
          <mxGeometry width="100" height="100" relative="1" as="geometry">
            <mxPoint x="74.58000000000001" y="665" as="sourcePoint" />
            <mxPoint x="70" y="550" as="targetPoint" />
          </mxGeometry>
        </mxCell>
        <mxCell id="tbZ0Uo-vrXjydTOs-JI0-23" value="" style="shape=flexArrow;endArrow=classic;startArrow=classic;html=1;rounded=0;exitX=0.5;exitY=0;exitDx=0;exitDy=0;entryX=0.413;entryY=0.9;entryDx=0;entryDy=0;entryPerimeter=0;" edge="1" parent="1">
          <mxGeometry width="100" height="100" relative="1" as="geometry">
            <mxPoint x="550" y="733" as="sourcePoint" />
            <mxPoint x="552" y="610" as="targetPoint" />
          </mxGeometry>
        </mxCell>
        <mxCell id="tbZ0Uo-vrXjydTOs-JI0-24" value="PaymentsDB" style="text;html=1;align=center;verticalAlign=middle;whiteSpace=wrap;rounded=0;strokeColor=default;" vertex="1" parent="1">
          <mxGeometry x="500" y="740" width="90" height="40" as="geometry" />
        </mxCell>
      </root>
    </mxGraphModel>
  </diagram>
</mxfile>
